<svg xmlns="http://www.w3.org/2000/svg" width="64" height="58" viewBox="0 0 64 58"><rect x="6.0" y="24.0" width="16.0" height="30.0" fill="#2c5a7a" rx="2" /><ellipse cx="14.0" cy="24.0" rx="8.0" ry="3.4" fill="#3a6d91" stroke="#1d3d54"/><ellipse cx="14.0" cy="54.0" rx="8.0" ry="3.4" fill="#1d3d54" /><line x1="6.0" y1="33.0" x2="22.0" y2="33.0" stroke="#1d3d54" stroke-width="1.4" stroke-linecap="round" /><line x1="6.0" y1="45.0" x2="22.0" y2="45.0" stroke="#1d3d54" stroke-width="1.4" stroke-linecap="round" /><line x1="8.0" y1="27.0" x2="8.0" y2="50.0" stroke="#4a7ba1" stroke-width="1" stroke-linecap="round" /><rect x="24.0" y="20.0" width="16.0" height="34.0" fill="#2c5a7a" rx="2" /><ellipse cx="32.0" cy="20.0" rx="8.0" ry="3.4" fill="#3a6d91" stroke="#1d3d54"/><ellipse cx="32.0" cy="54.0" rx="8.0" ry="3.4" fill="#1d3d54" /><line x1="24.0" y1="30.2" x2="40.0" y2="30.2" stroke="#1d3d54" stroke-width="1.4" stroke-linecap="round" /><line x1="24.0" y1="43.8" x2="40.0" y2="43.8" stroke="#1d3d54" stroke-width="1.4" stroke-linecap="round" /><line x1="26.0" y1="23.0" x2="26.0" y2="50.0" stroke="#4a7ba1" stroke-width="1" stroke-linecap="round" /><rect x="42.0" y="25.0" width="16.0" height="29.0" fill="#2c5a7a" rx="2" /><ellipse cx="50.0" cy="25.0" rx="8.0" ry="3.4" fill="#3a6d91" stroke="#1d3d54"/><ellipse cx="50.0" cy="54.0" rx="8.0" ry="3.4" fill="#1d3d54" /><line x1="42.0" y1="33.7" x2="58.0" y2="33.7" stroke="#1d3d54" stroke-width="1.4" stroke-linecap="round" /><line x1="42.0" y1="45.3" x2="58.0" y2="45.3" stroke="#1d3d54" stroke-width="1.4" stroke-linecap="round" /><line x1="44.0" y1="28.0" x2="44.0" y2="50.0" stroke="#4a7ba1" stroke-width="1" stroke-linecap="round" /><line x1="32.0" y1="6.0" x2="32.0" y2="20.0" stroke="#5a6a72" stroke-width="3" stroke-linecap="round" /><line x1="32.0" y1="6.0" x2="44.0" y2="2.0" stroke="#5a6a72" stroke-width="3" stroke-linecap="round" /></svg>