<svg xmlns="http://www.w3.org/2000/svg" width="64" height="56" viewBox="0 0 64 56"><polygon points="12.0,16.0 32.0,26.0 32.0,56.0 12.0,46.0" fill="#715622" stroke="rgba(20,12,6,0.35)" stroke-width="1"/><polygon points="52.0,16.0 32.0,26.0 32.0,56.0 52.0,46.0" fill="#503d18" stroke="rgba(20,12,6,0.35)" stroke-width="1"/><polygon points="32.0,6.0 52.0,16.0 32.0,26.0 12.0,16.0" fill="#95722d" stroke="rgba(20,12,6,0.35)" stroke-width="1"/><rect x="24.0" y="10.0" width="5.0" height="6.0" fill="#3a3a3a" rx="0" /><rect x="35.0" y="8.0" width="5.0" height="8.0" fill="#3a3a3a" rx="0" /><circle cx="26.5" cy="9.0" r="2.0" fill="#f2c14e" /><circle cx="37.5" cy="7.0" r="2.0" fill="#c9c4b8" /><rect x="18.0" y="24.0" width="5.0" height="18.0" fill="#14100a" rx="1" stroke="#f2c14e" stroke-width="0.8"/><line x1="19.0" y1="39.0" x2="22.0" y2="39.0" stroke="#f2c14e" stroke-width="0.8" stroke-linecap="round" /><line x1="19.0" y1="33.0" x2="22.0" y2="33.0" stroke="#f2c14e" stroke-width="0.8" stroke-linecap="round" /><line x1="19.0" y1="27.0" x2="22.0" y2="27.0" stroke="#f2c14e" stroke-width="0.8" stroke-linecap="round" /><path d="M 44 42 Q 54 46 56 56" stroke="#3a3a3a" stroke-width="2" fill="none"/></svg>