<svg xmlns="http://www.w3.org/2000/svg" width="64" height="62" viewBox="0 0 64 62"><polygon points="12.0,28.0 32.0,38.0 32.0,62.0 12.0,52.0" fill="#573e2f" stroke="rgba(20,12,6,0.35)" stroke-width="1"/><polygon points="52.0,28.0 32.0,38.0 32.0,62.0 52.0,52.0" fill="#3e2c21" stroke="rgba(20,12,6,0.35)" stroke-width="1"/><polygon points="32.0,18.0 52.0,28.0 32.0,38.0 12.0,28.0" fill="#73523e" stroke="rgba(20,12,6,0.35)" stroke-width="1"/><line x1="12.0" y1="46.0" x2="32.0" y2="56.0" stroke="#402d22" stroke-width="1" stroke-linecap="round" /><line x1="32.0" y1="56.0" x2="52.0" y2="46.0" stroke="#30221a" stroke-width="1" stroke-linecap="round" /><line x1="12.0" y1="40.0" x2="32.0" y2="50.0" stroke="#402d22" stroke-width="1" stroke-linecap="round" /><line x1="32.0" y1="50.0" x2="52.0" y2="40.0" stroke="#30221a" stroke-width="1" stroke-linecap="round" /><line x1="12.0" y1="34.0" x2="32.0" y2="44.0" stroke="#402d22" stroke-width="1" stroke-linecap="round" /><line x1="32.0" y1="44.0" x2="52.0" y2="34.0" stroke="#30221a" stroke-width="1" stroke-linecap="round" /><polygon points="32.0,18.0 52.0,28.0 32.0,38.0 12.0,28.0" fill="#2a1e14" /><ellipse cx="32.0" cy="29.0" rx="12.0" ry="5.0" fill="#4a3524" /><circle cx="28.0" cy="26.0" r="1.6" fill="#d88a9a" /></svg>