<svg xmlns="http://www.w3.org/2000/svg" width="200" height="120" viewBox="0 0 200 120"><line x1="8.0" y1="96.0" x2="8.0" y2="74.0" stroke="#5a4632" stroke-width="2.4" stroke-linecap="round" /><line x1="32.0" y1="96.0" x2="32.0" y2="74.0" stroke="#5a4632" stroke-width="2.4" stroke-linecap="round" /><line x1="56.0" y1="96.0" x2="56.0" y2="74.0" stroke="#5a4632" stroke-width="2.4" stroke-linecap="round" /><line x1="80.0" y1="96.0" x2="80.0" y2="74.0" stroke="#5a4632" stroke-width="2.4" stroke-linecap="round" /><line x1="104.0" y1="96.0" x2="104.0" y2="74.0" stroke="#5a4632" stroke-width="2.4" stroke-linecap="round" /><line x1="128.0" y1="96.0" x2="128.0" y2="74.0" stroke="#5a4632" stroke-width="2.4" stroke-linecap="round" /><line x1="152.0" y1="96.0" x2="152.0" y2="74.0" stroke="#5a4632" stroke-width="2.4" stroke-linecap="round" /><line x1="176.0" y1="96.0" x2="176.0" y2="74.0" stroke="#5a4632" stroke-width="2.4" stroke-linecap="round" /><line x1="0.0" y1="78.0" x2="200.0" y2="78.0" stroke="#6e5638" stroke-width="3" stroke-linecap="round" /><rect x="16.0" y="86.0" width="34.0" height="26.0" fill="#5b5b5b" rx="2" /><rect x="16.0" y="82.0" width="34.0" height="8.0" fill="#7a7a7a" rx="2" /><rect x="20.0" y="94.0" width="26.0" height="6.0" fill="#e8e6df" rx="1" /><polygon points="26.0,82.0 33.0,76.0 40.0,82.0" fill="#868686" /><rect x="62.0" y="86.0" width="34.0" height="26.0" fill="#235186" rx="2" /><rect x="62.0" y="82.0" width="34.0" height="8.0" fill="#2f6db3" rx="2" /><rect x="66.0" y="94.0" width="26.0" height="6.0" fill="#e8e6df" rx="1" /><polygon points="72.0,82.0 79.0,76.0 86.0,82.0" fill="#3377c4" /><rect x="108.0" y="86.0" width="34.0" height="26.0" fill="#375d42" rx="2" /><rect x="108.0" y="82.0" width="34.0" height="8.0" fill="#4a7c59" rx="2" /><rect x="112.0" y="94.0" width="26.0" height="6.0" fill="#e8e6df" rx="1" /><polygon points="118.0,82.0 125.0,76.0 132.0,82.0" fill="#518861" /><rect x="154.0" y="86.0" width="34.0" height="26.0" fill="#50392b" rx="2" /><rect x="154.0" y="82.0" width="34.0" height="8.0" fill="#6b4c3a" rx="2" /><rect x="158.0" y="94.0" width="26.0" height="6.0" fill="#e8e6df" rx="1" /><polygon points="164.0,82.0 171.0,76.0 178.0,82.0" fill="#75533f" /><rect x="150.0" y="60.0" width="40.0" height="5.0" fill="#e8e6df" rx="1" /><rect x="148.0" y="52.0" width="44.0" height="8.0" fill="#4a7c59" rx="1" /></svg>