<svg xmlns="http://www.w3.org/2000/svg" width="64" height="70" viewBox="0 0 64 70"><polygon points="6.0,47.0 32.0,60.0 32.0,70.0 6.0,57.0" fill="#5a3f27" stroke="rgba(20,12,6,0.35)" stroke-width="1"/><polygon points="58.0,47.0 32.0,60.0 32.0,70.0 58.0,57.0" fill="#3f2d1b" stroke="rgba(20,12,6,0.35)" stroke-width="1"/><polygon points="32.0,34.0 58.0,47.0 32.0,60.0 6.0,47.0" fill="#765433" stroke="rgba(20,12,6,0.35)" stroke-width="1"/><polygon points="32.0,38.0 53.0,48.5 32.0,59.0 11.0,48.5" fill="#3f2e1d" /><line x1="10.0" y1="56.0" x2="10.0" y2="24.0" stroke="#c9c4b8" stroke-width="3.4" stroke-linecap="round" /><line x1="54.0" y1="56.0" x2="54.0" y2="24.0" stroke="#b0ab9e" stroke-width="3.4" stroke-linecap="round" /><line x1="10.0" y1="24.0" x2="54.0" y2="24.0" stroke="#c9c4b8" stroke-width="3.4" stroke-linecap="round" /><rect x="17.0" y="22.0" width="8.0" height="8.0" fill="#2c4a66" rx="1" /><rect x="19.0" y="30.0" width="4.0" height="9.0" fill="#3b82f6" rx="1" /><circle cx="21.0" cy="42.0" r="1.1" fill="#4ac2d8" opacity="0.8"/><circle cx="21.0" cy="47.0" r="1.1" fill="#4ac2d8" opacity="0.6000000000000001"/><circle cx="21.0" cy="52.0" r="1.1" fill="#4ac2d8" opacity="0.4"/></svg>