<svg xmlns="http://www.w3.org/2000/svg" width="288" height="190" viewBox="0 0 288 190"><polygon points="80.0,126.0 208.0,190.0 208.0,142.0 80.0,78.0" fill="#795d41" stroke="rgba(20,12,6,0.35)"/><polygon points="208.0,190.0 272.0,158.0 272.0,110.0 208.0,142.0" fill="#523f2c" stroke="rgba(20,12,6,0.35)"/><line x1="80.0" y1="114.0" x2="208.0" y2="178.0" stroke="#604a33" stroke-width="1" stroke-linecap="round" /><line x1="208.0" y1="178.0" x2="272.0" y2="146.0" stroke="#453525" stroke-width="1" stroke-linecap="round" /><line x1="80.0" y1="102.0" x2="208.0" y2="166.0" stroke="#604a33" stroke-width="1" stroke-linecap="round" /><line x1="208.0" y1="166.0" x2="272.0" y2="134.0" stroke="#453525" stroke-width="1" stroke-linecap="round" /><line x1="80.0" y1="90.0" x2="208.0" y2="154.0" stroke="#604a33" stroke-width="1" stroke-linecap="round" /><line x1="208.0" y1="154.0" x2="272.0" y2="122.0" stroke="#453525" stroke-width="1" stroke-linecap="round" /><polygon points="100.5,118.2 117.5,126.7 117.5,110.7 100.5,102.2" fill="#f2c14e" stroke="#3a2a1a" stroke-width="1.5"/><line x1="109.0" y1="122.5" x2="109.0" y2="106.5" stroke="#3a2a1a" stroke-width="1" stroke-linecap="round" /><polygon points="133.8,134.9 150.8,143.4 150.8,127.4 133.8,118.9" fill="#f2c14e" stroke="#3a2a1a" stroke-width="1.5"/><line x1="142.3" y1="139.1" x2="142.3" y2="123.1" stroke="#3a2a1a" stroke-width="1" stroke-linecap="round" /><polygon points="167.0,151.5 184.0,160.0 184.0,144.0 167.0,135.5" fill="#f2c14e" stroke="#3a2a1a" stroke-width="1.5"/><line x1="175.5" y1="155.8" x2="175.5" y2="139.8" stroke="#3a2a1a" stroke-width="1" stroke-linecap="round" /><polygon points="228.5,179.8 244.5,171.8 244.5,137.8 228.5,145.8" fill="#3a2a1a" stroke="rgba(0,0,0,0.4)"/><circle cx="241.5" cy="156.8" r="1.5" fill="#f2c14e" /><polygon points="144.0,46.0 272.0,110.0 240.0,100.0 112.0,36.0" fill="#5a4030" stroke="rgba(20,12,6,0.4)"/><polygon points="80.0,78.0 208.0,142.0 240.0,100.0 112.0,36.0" fill="#6e4e38" stroke="rgba(20,12,6,0.4)"/><line x1="112.0" y1="36.0" x2="240.0" y2="100.0" stroke="#8a6a4a" stroke-width="2" stroke-linecap="round" /><polygon points="101.8,77.3 150.4,101.6 169.6,76.4 121.0,52.1" fill="#2f6db3" stroke="#9cc4e8" stroke-width="1.5"/><line x1="126.1" y1="89.4" x2="145.3" y2="64.2" stroke="#9cc4e8" stroke-width="1" stroke-linecap="round" /><line x1="111.4" y1="64.7" x2="160.0" y2="89.0" stroke="#9cc4e8" stroke-width="1" stroke-linecap="round" /></svg>