<svg xmlns="http://www.w3.org/2000/svg" width="64" height="78" viewBox="0 0 64 78"><polygon points="8.0,41.0 30.0,52.0 30.0,78.0 8.0,67.0" fill="#3c6548" stroke="rgba(20,12,6,0.35)" stroke-width="1"/><polygon points="52.0,41.0 30.0,52.0 30.0,78.0 52.0,67.0" fill="#2a4733" stroke="rgba(20,12,6,0.35)" stroke-width="1"/><polygon points="30.0,30.0 52.0,41.0 30.0,52.0 8.0,41.0" fill="#4f8560" stroke="rgba(20,12,6,0.35)" stroke-width="1"/><line x1="8.0" y1="58.3" x2="30.0" y2="69.3" stroke="#2c4a35" stroke-width="1" stroke-linecap="round" /><line x1="30.0" y1="69.3" x2="52.0" y2="58.3" stroke="#213728" stroke-width="1" stroke-linecap="round" /><line x1="8.0" y1="49.7" x2="30.0" y2="60.7" stroke="#2c4a35" stroke-width="1" stroke-linecap="round" /><line x1="30.0" y1="60.7" x2="52.0" y2="49.7" stroke="#213728" stroke-width="1" stroke-linecap="round" /><polygon points="16.0,26.0 44.0,26.0 36.0,40.0 24.0,40.0" fill="#3a6247" stroke="rgba(20,12,6,0.35)"/><ellipse cx="30.0" cy="26.0" rx="14.0" ry="5.0" fill="#2c4a36" stroke="rgba(20,12,6,0.35)"/><ellipse cx="30.0" cy="25.0" rx="10.0" ry="3.4" fill="#1d3324" /><circle cx="52.0" cy="56.0" r="10.0" fill="#d8d4c8" stroke="#8a8578" stroke-width="1.5"/><g transform="rotate(0 52 56)"><line x1="44.0" y1="56.0" x2="60.0" y2="56.0" stroke="#8a8578" stroke-width="1.6" stroke-linecap="round" /><line x1="52.0" y1="48.0" x2="52.0" y2="64.0" stroke="#8a8578" stroke-width="1.6" stroke-linecap="round" /></g><circle cx="52.0" cy="56.0" r="2.2" fill="#5a564a" /><path d="M 43 52 Q 40 44 36 40" stroke="#f2c14e" stroke-width="1.6" fill="none"/><circle cx="20.0" cy="48.0" r="2.2" fill="#2c4a36" /></svg>