<svg xmlns="http://www.w3.org/2000/svg" width="64" height="74" viewBox="0 0 64 74"><polygon points="32.0,50.0 56.0,62.0 32.0,74.0 8.0,62.0" fill="#3a4652" /><rect x="9.0" y="18.0" width="5.0" height="46.0" fill="#396489" rx="0" /><rect x="50.0" y="18.0" width="5.0" height="46.0" fill="#243f57" rx="0" /><rect x="9.0" y="14.0" width="46.0" height="5.0" fill="#3d6a91" rx="1" /><rect x="11.0" y="32.0" width="42.0" height="3.4" fill="#2c4a66" rx="0" /><rect x="27.0" y="28.0" width="10.0" height="11.0" fill="#1e293b" rx="1" /><polygon points="29.6,39.0 34.4,39.0 32.0,45.0" fill="#8fa8bf" /><polygon points="24.0,59.0 32.0,63.0 32.0,68.0 24.0,64.0" fill="#3c6548" stroke="rgba(20,12,6,0.35)" stroke-width="1"/><polygon points="40.0,59.0 32.0,63.0 32.0,68.0 40.0,64.0" fill="#2a4733" stroke="rgba(20,12,6,0.35)" stroke-width="1"/><polygon points="32.0,55.0 40.0,59.0 32.0,63.0 24.0,59.0" fill="#4f8560" stroke="rgba(20,12,6,0.35)" stroke-width="1"/></svg>