<svg xmlns="http://www.w3.org/2000/svg" width="960" height="90" viewBox="0 0 960 90"><defs><radialGradient id="sun"><stop offset="0%" stop-color="#f2c14e" stop-opacity="0.75"/><stop offset="100%" stop-color="#f2c14e" stop-opacity="0"/></radialGradient></defs><circle cx="150.0" cy="34.0" r="44.0" fill="url(#sun)" /><rect x="10.0" y="46.0" width="58.0" height="40.0" fill="#3d312b" rx="0" /><rect x="21.6" y="41.0" width="9.3" height="5.0" fill="#3d312b" rx="0" /><rect x="66.0" y="30.0" width="44.0" height="56.0" fill="#4a3a32" rx="0" /><polygon points="62.0,30.0 88.0,16.0 114.0,30.0" fill="#4a3a32" /><rect x="128.0" y="52.0" width="40.0" height="34.0" fill="#3d312b" rx="0" /><rect x="136.0" y="47.0" width="6.4" height="5.0" fill="#3d312b" rx="0" /><rect x="196.0" y="26.0" width="62.0" height="60.0" fill="#57453c" rx="0" /><polygon points="192.0,26.0 227.0,12.0 262.0,26.0" fill="#57453c" /><rect x="250.0" y="44.0" width="50.0" height="42.0" fill="#4a3a32" rx="0" /><rect x="260.0" y="39.0" width="8.0" height="5.0" fill="#4a3a32" rx="0" /><rect x="318.0" y="34.0" width="46.0" height="52.0" fill="#3d312b" rx="0" /><polygon points="314.0,34.0 341.0,20.0 368.0,34.0" fill="#3d312b" /><rect x="380.0" y="50.0" width="56.0" height="36.0" fill="#4a3a32" rx="0" /><rect x="391.2" y="45.0" width="9.0" height="5.0" fill="#4a3a32" rx="0" /><rect x="448.0" y="28.0" width="40.0" height="58.0" fill="#57453c" rx="0" /><polygon points="444.0,28.0 468.0,14.0 492.0,28.0" fill="#57453c" /><rect x="500.0" y="42.0" width="62.0" height="44.0" fill="#3d312b" rx="0" /><rect x="512.4" y="37.0" width="9.9" height="5.0" fill="#3d312b" rx="0" /><rect x="574.0" y="34.0" width="44.0" height="52.0" fill="#4a3a32" rx="0" /><polygon points="570.0,34.0 596.0,20.0 622.0,34.0" fill="#4a3a32" /><rect x="630.0" y="50.0" width="50.0" height="36.0" fill="#57453c" rx="0" /><rect x="640.0" y="45.0" width="8.0" height="5.0" fill="#57453c" rx="0" /><rect x="692.0" y="30.0" width="42.0" height="56.0" fill="#3d312b" rx="0" /><polygon points="688.0,30.0 713.0,16.0 738.0,30.0" fill="#3d312b" /><rect x="748.0" y="44.0" width="58.0" height="42.0" fill="#4a3a32" rx="0" /><rect x="759.6" y="39.0" width="9.3" height="5.0" fill="#4a3a32" rx="0" /><rect x="818.0" y="36.0" width="46.0" height="50.0" fill="#3d312b" rx="0" /><polygon points="814.0,36.0 841.0,22.0 868.0,36.0" fill="#3d312b" /><rect x="874.0" y="50.0" width="44.0" height="36.0" fill="#57453c" rx="0" /><rect x="882.8" y="45.0" width="7.0" height="5.0" fill="#57453c" rx="0" /><rect x="922.0" y="40.0" width="34.0" height="46.0" fill="#4a3a32" rx="0" /><polygon points="918.0,40.0 939.0,26.0 960.0,40.0" fill="#4a3a32" /><rect x="556.0" y="18.0" width="16.0" height="12.0" fill="#57453c" rx="2" /><line x1="558.0" y1="30.0" x2="556.0" y2="44.0" stroke="#57453c" stroke-width="2" stroke-linecap="round" /><line x1="570.0" y1="30.0" x2="572.0" y2="44.0" stroke="#57453c" stroke-width="2" stroke-linecap="round" /><polygon points="554.0,18.0 564.0,10.0 574.0,18.0" fill="#4a3a32" /><rect x="0.0" y="78.0" width="960.0" height="7.0" fill="#3a332e" rx="0" /><rect x="10.0" y="81.0" width="12.0" height="1.4" fill="#57514a" rx="0" /><rect x="58.0" y="81.0" width="12.0" height="1.4" fill="#57514a" rx="0" /><rect x="106.0" y="81.0" width="12.0" height="1.4" fill="#57514a" rx="0" /><rect x="154.0" y="81.0" width="12.0" height="1.4" fill="#57514a" rx="0" /><rect x="202.0" y="81.0" width="12.0" height="1.4" fill="#57514a" rx="0" /><rect x="250.0" y="81.0" width="12.0" height="1.4" fill="#57514a" rx="0" /><rect x="298.0" y="81.0" width="12.0" height="1.4" fill="#57514a" rx="0" /><rect x="346.0" y="81.0" width="12.0" height="1.4" fill="#57514a" rx="0" /><rect x="394.0" y="81.0" width="12.0" height="1.4" fill="#57514a" rx="0" /><rect x="442.0" y="81.0" width="12.0" height="1.4" fill="#57514a" rx="0" /><rect x="490.0" y="81.0" width="12.0" height="1.4" fill="#57514a" rx="0" /><rect x="538.0" y="81.0" width="12.0" height="1.4" fill="#57514a" rx="0" /><rect x="586.0" y="81.0" width="12.0" height="1.4" fill="#57514a" rx="0" /><rect x="634.0" y="81.0" width="12.0" height="1.4" fill="#57514a" rx="0" /><rect x="682.0" y="81.0" width="12.0" height="1.4" fill="#57514a" rx="0" /><rect x="730.0" y="81.0" width="12.0" height="1.4" fill="#57514a" rx="0" /><rect x="778.0" y="81.0" width="12.0" height="1.4" fill="#57514a" rx="0" /><rect x="826.0" y="81.0" width="12.0" height="1.4" fill="#57514a" rx="0" /><rect x="874.0" y="81.0" width="12.0" height="1.4" fill="#57514a" rx="0" /><rect x="922.0" y="81.0" width="12.0" height="1.4" fill="#57514a" rx="0" /><rect x="210.0" y="79.0" width="7.0" height="3.4" fill="#c1573a" rx="1" /><rect x="540.0" y="79.0" width="7.0" height="3.4" fill="#5a7a9a" rx="1" /><rect x="800.0" y="79.0" width="7.0" height="3.4" fill="#7a8a5a" rx="1" /></svg>