<svg xmlns="http://www.w3.org/2000/svg" width="64" height="24" viewBox="0 0 64 24"><line x1="12.0" y1="22.0" x2="12.0" y2="11.0" stroke="#4f8f3f" stroke-width="1.8" stroke-linecap="round" /><ellipse cx="9.0" cy="14.0" rx="3.0" ry="1.6" fill="#5f8f42" transform="rotate(-28 9 14)"/><ellipse cx="15.0" cy="15.0" rx="3.0" ry="1.6" fill="#5f8f42" transform="rotate(28 15 15)"/><line x1="22.0" y1="22.0" x2="22.0" y2="9.5" stroke="#4f8f3f" stroke-width="1.8" stroke-linecap="round" /><ellipse cx="19.0" cy="12.5" rx="3.0" ry="1.6" fill="#5f8f42" transform="rotate(-28 19 12)"/><ellipse cx="25.0" cy="13.5" rx="3.0" ry="1.6" fill="#5f8f42" transform="rotate(28 25 13)"/><line x1="32.0" y1="22.0" x2="32.0" y2="8.0" stroke="#4f8f3f" stroke-width="1.8" stroke-linecap="round" /><ellipse cx="29.0" cy="11.0" rx="3.0" ry="1.6" fill="#5f8f42" transform="rotate(-28 29 11)"/><ellipse cx="35.0" cy="12.0" rx="3.0" ry="1.6" fill="#5f8f42" transform="rotate(28 35 12)"/><line x1="42.0" y1="22.0" x2="42.0" y2="11.0" stroke="#4f8f3f" stroke-width="1.8" stroke-linecap="round" /><ellipse cx="39.0" cy="14.0" rx="3.0" ry="1.6" fill="#5f8f42" transform="rotate(-28 39 14)"/><ellipse cx="45.0" cy="15.0" rx="3.0" ry="1.6" fill="#5f8f42" transform="rotate(28 45 15)"/><line x1="52.0" y1="22.0" x2="52.0" y2="9.5" stroke="#4f8f3f" stroke-width="1.8" stroke-linecap="round" /><ellipse cx="49.0" cy="12.5" rx="3.0" ry="1.6" fill="#5f8f42" transform="rotate(-28 49 12)"/><ellipse cx="55.0" cy="13.5" rx="3.0" ry="1.6" fill="#5f8f42" transform="rotate(28 55 13)"/></svg>