<svg xmlns="http://www.w3.org/2000/svg" width="64" height="24" viewBox="0 0 64 24"><line x1="12.0" y1="22.0" x2="12.0" y2="7.0" stroke="#4f8f3f" stroke-width="1.8" stroke-linecap="round" /><ellipse cx="9.0" cy="10.0" rx="3.0" ry="1.6" fill="#5f8f42" transform="rotate(-28 9 10)"/><ellipse cx="15.0" cy="11.0" rx="3.0" ry="1.6" fill="#5f8f42" transform="rotate(28 15 11)"/><circle cx="12.0" cy="5.6" r="1.6" fill="#f2c14e" /><line x1="22.0" y1="22.0" x2="22.0" y2="5.5" stroke="#4f8f3f" stroke-width="1.8" stroke-linecap="round" /><ellipse cx="19.0" cy="8.5" rx="3.0" ry="1.6" fill="#5f8f42" transform="rotate(-28 19 8)"/><ellipse cx="25.0" cy="9.5" rx="3.0" ry="1.6" fill="#5f8f42" transform="rotate(28 25 9)"/><circle cx="22.0" cy="4.1" r="1.6" fill="#f2c14e" /><line x1="32.0" y1="22.0" x2="32.0" y2="4.0" stroke="#4f8f3f" stroke-width="1.8" stroke-linecap="round" /><ellipse cx="29.0" cy="7.0" rx="3.0" ry="1.6" fill="#5f8f42" transform="rotate(-28 29 7)"/><ellipse cx="35.0" cy="8.0" rx="3.0" ry="1.6" fill="#5f8f42" transform="rotate(28 35 8)"/><circle cx="32.0" cy="2.6" r="1.6" fill="#f2c14e" /><line x1="42.0" y1="22.0" x2="42.0" y2="7.0" stroke="#4f8f3f" stroke-width="1.8" stroke-linecap="round" /><ellipse cx="39.0" cy="10.0" rx="3.0" ry="1.6" fill="#5f8f42" transform="rotate(-28 39 10)"/><ellipse cx="45.0" cy="11.0" rx="3.0" ry="1.6" fill="#5f8f42" transform="rotate(28 45 11)"/><circle cx="42.0" cy="5.6" r="1.6" fill="#f2c14e" /><line x1="52.0" y1="22.0" x2="52.0" y2="5.5" stroke="#4f8f3f" stroke-width="1.8" stroke-linecap="round" /><ellipse cx="49.0" cy="8.5" rx="3.0" ry="1.6" fill="#5f8f42" transform="rotate(-28 49 8)"/><ellipse cx="55.0" cy="9.5" rx="3.0" ry="1.6" fill="#5f8f42" transform="rotate(28 55 9)"/><circle cx="52.0" cy="4.1" r="1.6" fill="#f2c14e" /></svg>