<svg xmlns="http://www.w3.org/2000/svg" width="46" height="70" viewBox="0 0 46 70"><rect x="10.20" y="61.60" width="6.60" height="5.40" fill="#d96a12" rx="1.6" /><rect x="9.70" y="66.20" width="7.60" height="1.90" fill="#1d2024" rx="0.9" /><line x1="11.60" y1="63.00" x2="14.80" y2="62.60" stroke="#8a3f08" stroke-width="0.8" stroke-linecap="round" /><line x1="11.60" y1="64.40" x2="14.80" y2="64.00" stroke="#8a3f08" stroke-width="0.8" stroke-linecap="round" /><rect x="19.00" y="61.60" width="6.60" height="5.40" fill="#d96a12" rx="1.6" /><rect x="18.50" y="66.20" width="7.60" height="1.90" fill="#1d2024" rx="0.9" /><line x1="20.40" y1="63.00" x2="23.60" y2="62.60" stroke="#8a3f08" stroke-width="0.8" stroke-linecap="round" /><line x1="20.40" y1="64.40" x2="23.60" y2="64.00" stroke="#8a3f08" stroke-width="0.8" stroke-linecap="round" /><rect x="10.60" y="43.50" width="5.60" height="19.50" fill="#3a3f46" rx="2" /><rect x="11.50" y="51.69" width="3.80" height="4.20" fill="#2b2f35" rx="0.8" stroke="#454b53" stroke-width="0.5"/><rect x="10.60" y="61.20" width="5.60" height="1.80" fill="#2b2f35" rx="0.8" /><rect x="18.80" y="43.50" width="5.60" height="19.50" fill="#2b2f35" rx="2" /><rect x="19.70" y="51.69" width="3.80" height="4.20" fill="#22262b" rx="0.8" stroke="#454b53" stroke-width="0.5"/><rect x="18.80" y="61.20" width="5.60" height="1.80" fill="#2b2f35" rx="0.8" /><rect x="8.80" y="41.60" width="16.40" height="2.90" fill="#2c2620" rx="1" /><rect x="15.60" y="42.10" width="2.80" height="1.90" fill="#b9b3a6" rx="0.5" /><rect x="9.60" y="44.20" width="3.40" height="3.40" fill="#6b4c3a" rx="0.9" stroke="#4a3526" stroke-width="0.5"/><rect x="21.60" y="44.00" width="1.40" height="4.40" fill="#9aa1a8" rx="0.6" /><circle cx="22.30" cy="44.00" r="1.10" fill="#9aa1a8" /><circle cx="22.30" cy="44.00" r="0.50" fill="#2c2620" /><rect x="23.80" y="44.00" width="1.20" height="2.80" fill="#f2c14e" rx="0.5" /><rect x="24.10" y="46.80" width="0.60" height="2.00" fill="#9aa1a8" rx="0.3" /><ellipse cx="17.00" cy="24.90" rx="7.60" ry="2.80" fill="#b85a10" /><ellipse cx="17.00" cy="25.30" rx="5.40" ry="1.80" fill="#a04e0c" /><rect x="8.50" y="25.50" width="17.00" height="17.50" fill="#e87722" rx="3.4" /><path d="M 21.5 26.5 q 4 8.75 0 15.5 l 4 0 q 1.2 -9.625 0 15.3 z" fill="#b85a10"  opacity="0.55"/><path d="M 14.8 26.9 L 17 30.0 L 19.2 26.9 L 18.2 30.3 L 17 41.5 L 15.8 30.3 Z" fill="#23262b"  /><line x1="17.00" y1="30.00" x2="17.00" y2="40.50" stroke="#8a4508" stroke-width="0.9" stroke-linecap="round" /><line x1="10.70" y1="31.00" x2="13.80" y2="31.80" stroke="#8a4508" stroke-width="0.8" stroke-linecap="round" /><line x1="20.20" y1="31.80" x2="23.30" y2="31.00" stroke="#8a4508" stroke-width="0.8" stroke-linecap="round" /><rect x="8.50" y="40.60" width="17.00" height="2.40" fill="#b85a10" rx="1.1" /><line x1="10.40" y1="40.80" x2="10.40" y2="42.60" stroke="#8a4508" stroke-width="0.5" stroke-linecap="round" /><line x1="12.60" y1="40.80" x2="12.60" y2="42.60" stroke="#8a4508" stroke-width="0.5" stroke-linecap="round" /><line x1="14.80" y1="40.80" x2="14.80" y2="42.60" stroke="#8a4508" stroke-width="0.5" stroke-linecap="round" /><line x1="17.00" y1="40.80" x2="17.00" y2="42.60" stroke="#8a4508" stroke-width="0.5" stroke-linecap="round" /><line x1="19.20" y1="40.80" x2="19.20" y2="42.60" stroke="#8a4508" stroke-width="0.5" stroke-linecap="round" /><line x1="21.40" y1="40.80" x2="21.40" y2="42.60" stroke="#8a4508" stroke-width="0.5" stroke-linecap="round" /><line x1="23.60" y1="40.80" x2="23.60" y2="42.60" stroke="#8a4508" stroke-width="0.5" stroke-linecap="round" /><g transform="rotate(-64 25.700000000000003 27.599999999999998)"><rect x="23.60" y="26.40" width="4.20" height="12.00" fill="#b85a10" rx="2" /><rect x="23.60" y="35.80" width="4.20" height="1.80" fill="#8a4508" rx="0.8" /><rect x="23.90" y="37.40" width="3.60" height="4.20" fill="#22262b" rx="1.5" /><line x1="24.60" y1="39.00" x2="26.60" y2="39.00" stroke="#3a4048" stroke-width="0.7" stroke-linecap="round" /><rect x="24.80" y="41.00" width="1.80" height="3.20" fill="#9aa1a8" rx="0.5" /></g><g transform="rotate(-38 9.1 28.4)"><rect x="7.00" y="27.20" width="4.20" height="12.40" fill="#f5924a" rx="2" /><rect x="7.00" y="37.00" width="4.20" height="1.80" fill="#8a4508" rx="0.8" /><rect x="7.30" y="38.60" width="3.60" height="4.20" fill="#22262b" rx="1.5" /><line x1="8.00" y1="40.20" x2="10.00" y2="40.20" stroke="#3a4048" stroke-width="0.7" stroke-linecap="round" /></g><rect x="16.20" y="21.80" width="4.00" height="3.40" fill="#5f3922" rx="0" /><circle cx="18.20" cy="17.20" r="6.10" fill="#7a4a2e" /><circle cx="16.60" cy="17.40" r="0.75" fill="#14100a" /><circle cx="20.80" cy="17.40" r="0.75" fill="#14100a" /><line x1="15.60" y1="15.60" x2="17.50" y2="15.30" stroke="#14100a" stroke-width="0.7" stroke-linecap="round" /><line x1="19.90" y1="15.30" x2="21.70" y2="15.60" stroke="#14100a" stroke-width="0.7" stroke-linecap="round" /><path d="M 18.4 19.8 q 1.3 0.9 2.4 0.2" fill="none" stroke="#5f3922" stroke-width="0.8" stroke-linecap="round" /><circle cx="12.60" cy="18.00" r="1.40" fill="#5f3922" /><path d="M 12.1 16.0 a 6.1 6.1 0 0 1 12.2 0 l 0 -1.6 a 6.1 6.4 0 0 0 -12.2 0 z" fill="#2e2620"  /><ellipse cx="18.50" cy="11.80" rx="6.30" ry="3.30" fill="#171310" /><circle cx="14.60" cy="10.60" r="2.60" fill="#171310" /><circle cx="18.40" cy="9.40" r="2.90" fill="#171310" /><circle cx="22.00" cy="10.60" r="2.60" fill="#171310" /><circle cx="16.40" cy="8.60" r="2.20" fill="#171310" /><circle cx="20.40" cy="8.60" r="2.20" fill="#171310" /><circle cx="15.40" cy="9.60" r="0.60" fill="#2e2620" /><circle cx="19.40" cy="8.00" r="0.60" fill="#2e2620" /><circle cx="22.20" cy="10.00" r="0.60" fill="#2e2620" /><circle cx="17.60" cy="10.80" r="0.60" fill="#2e2620" /><rect x="33.80" y="18.50" width="10.50" height="12.50" fill="#58e07a" rx="1.4" opacity="0.225" stroke="#58e07a" stroke-width="0.9" stroke-opacity="0.9"/><line x1="35.40" y1="21.60" x2="43.60" y2="21.60" stroke="#58e07a" stroke-width="0.9" stroke-linecap="round" opacity="0.85"/><line x1="35.40" y1="24.20" x2="41.80" y2="24.20" stroke="#58e07a" stroke-width="0.9" stroke-linecap="round" opacity="0.85"/><line x1="35.40" y1="26.80" x2="42.80" y2="26.80" stroke="#58e07a" stroke-width="0.9" stroke-linecap="round" opacity="0.85"/><rect x="35.40" y="28.60" width="4.00" height="1.60" fill="#58e07a" rx="0.4" opacity="0.9"/><line x1="29.50" y1="32.50" x2="33.40" y2="27.50" stroke="#58e07a" stroke-width="0.8" stroke-linecap="round" opacity="0.5" stroke-dasharray="1.4 1.6"/></svg>