<svg xmlns="http://www.w3.org/2000/svg" width="34" height="62" viewBox="0 0 34 62"><ellipse cx="17.0" cy="60.0" rx="9.0" ry="3.0" fill="rgba(0,0,0,0.28)" /><rect x="11.0" y="44.0" width="4.6" height="16.0" fill="#3a4a63" rx="1.6" /><rect x="10.4" y="57.0" width="6.0" height="3.4" fill="#1d1712" rx="1.4" /><rect x="19.0" y="44.0" width="4.6" height="16.0" fill="#3a4a63" rx="1.6" /><rect x="18.4" y="57.0" width="6.0" height="3.4" fill="#1d1712" rx="1.4" /><g transform="rotate(-7 17 40)"><rect x="9.0" y="24.0" width="16.0" height="21.0" fill="#4a6a3a" rx="4" /><rect x="10.0" y="26.0" width="4.4" height="17.0" fill="#c9973a" rx="1.6" /><rect x="19.6" y="26.0" width="4.4" height="17.0" fill="#c9973a" rx="1.6" /><line x1="17.0" y1="26.0" x2="17.0" y2="42.0" stroke="#374f2b" stroke-width="1" stroke-linecap="round" /><rect x="6.0" y="26.0" width="3.6" height="15.0" fill="#4a6a3a" rx="1.8" /><g transform="rotate(-38 26 27)"><rect x="24.4" y="26.0" width="3.6" height="14.0" fill="#4a6a3a" rx="1.8" /></g><line x1="34.0" y1="34.0" x2="38.0" y2="30.0" stroke="#8a8a78" stroke-width="2.4" stroke-linecap="round" /><circle cx="17.0" cy="17.0" r="7.0" fill="#8a5f42" /><path d="M 10 16 a 7 7 0 0 1 14 0 l 0 -2.4 a 7 7.6 0 0 0 -14 0 z" fill="#1d1712"/><ellipse cx="17.0" cy="10.6" rx="7.0" ry="3.8" fill="#1d1712" /><circle cx="19.8" cy="16.6" r="0.9" fill="#14100a" /></g></svg>