<svg xmlns="http://www.w3.org/2000/svg" width="40" height="70" viewBox="0 0 40 70"><rect x="13.00" y="61.60" width="6.60" height="5.40" fill="#d96a12" rx="1.6" /><rect x="12.50" y="66.20" width="7.60" height="1.90" fill="#1d2024" rx="0.9" /><line x1="14.40" y1="63.00" x2="17.60" y2="62.60" stroke="#8a3f08" stroke-width="0.8" stroke-linecap="round" /><line x1="14.40" y1="64.40" x2="17.60" y2="64.00" stroke="#8a3f08" stroke-width="0.8" stroke-linecap="round" /><rect x="21.40" y="61.60" width="6.60" height="5.40" fill="#d96a12" rx="1.6" /><rect x="20.90" y="66.20" width="7.60" height="1.90" fill="#1d2024" rx="0.9" /><line x1="22.80" y1="63.00" x2="26.00" y2="62.60" stroke="#8a3f08" stroke-width="0.8" stroke-linecap="round" /><line x1="22.80" y1="64.40" x2="26.00" y2="64.00" stroke="#8a3f08" stroke-width="0.8" stroke-linecap="round" /><rect x="13.40" y="43.50" width="5.60" height="19.50" fill="#3a3f46" rx="2" /><rect x="21.20" y="43.50" width="5.60" height="19.50" fill="#2b2f35" rx="2" /><rect x="14.60" y="45.20" width="3.20" height="3.40" fill="#2b2f35" rx="0.6" /><rect x="22.40" y="45.20" width="3.20" height="3.40" fill="#22262b" rx="0.6" /><rect x="13.40" y="61.20" width="5.60" height="1.80" fill="#2b2f35" rx="0.8" /><rect x="21.20" y="61.20" width="5.60" height="1.80" fill="#22262b" rx="0.8" /><rect x="11.80" y="41.60" width="16.40" height="2.90" fill="#2c2620" rx="1" /><rect x="13.20" y="44.20" width="3.20" height="3.60" fill="#6b4c3a" rx="0.9" /><rect x="24.40" y="44.00" width="1.40" height="4.20" fill="#9aa1a8" rx="0.6" /><rect x="11.50" y="25.50" width="17.00" height="17.50" fill="#e87722" rx="3.4" /><path d="M 24.5 26.5 q 4 8.75 0 15.5 l 4 0 q 1.2 -9.625 0 15.3 z" fill="#b85a10"  opacity="0.55"/><path d="M 14.4 26.1 Q 20 33.3 25.6 26.1 Q 20 28.9 14.4 26.1 Z" fill="#b85a10"  /><path d="M 15.8 26.7 Q 20 31.1 24.2 26.7" fill="none" stroke="#a04e0c" stroke-width="1.1" stroke-linecap="round" /><polyline points="16.6,35.15 17.8,32.15 19.1,34.75" stroke="#2c2620" stroke-width="0.85" fill="none" stroke-linejoin="round"/><polyline points="20.9,34.75 22.2,32.15 23.4,35.15" stroke="#2c2620" stroke-width="0.85" fill="none" stroke-linejoin="round"/><polygon points="16.6,35.15 23.4,35.15 22.2,38.75 20,40.95 17.8,38.75" stroke="#2c2620" stroke-width="0.85" fill="none" stroke-linejoin="round"/><line x1="16.60" y1="35.15" x2="20.00" y2="37.75" stroke="#2c2620" stroke-width="0.7" stroke-linecap="round" /><line x1="23.40" y1="35.15" x2="20.00" y2="37.75" stroke="#2c2620" stroke-width="0.7" stroke-linecap="round" /><line x1="20.00" y1="37.75" x2="20.00" y2="40.95" stroke="#2c2620" stroke-width="0.7" stroke-linecap="round" /><rect x="11.50" y="40.60" width="17.00" height="2.40" fill="#b85a10" rx="1.1" /><line x1="13.40" y1="40.80" x2="13.40" y2="42.60" stroke="#8a4508" stroke-width="0.5" stroke-linecap="round" /><line x1="15.60" y1="40.80" x2="15.60" y2="42.60" stroke="#8a4508" stroke-width="0.5" stroke-linecap="round" /><line x1="17.80" y1="40.80" x2="17.80" y2="42.60" stroke="#8a4508" stroke-width="0.5" stroke-linecap="round" /><line x1="20.00" y1="40.80" x2="20.00" y2="42.60" stroke="#8a4508" stroke-width="0.5" stroke-linecap="round" /><line x1="22.20" y1="40.80" x2="22.20" y2="42.60" stroke="#8a4508" stroke-width="0.5" stroke-linecap="round" /><line x1="24.40" y1="40.80" x2="24.40" y2="42.60" stroke="#8a4508" stroke-width="0.5" stroke-linecap="round" /><line x1="26.60" y1="40.80" x2="26.60" y2="42.60" stroke="#8a4508" stroke-width="0.5" stroke-linecap="round" /><g transform="rotate(3 11.299999999999999 28.0)"><rect x="9.20" y="26.80" width="4.20" height="13.20" fill="#f5924a" rx="2" /><rect x="9.20" y="37.40" width="4.20" height="1.80" fill="#8a4508" rx="0.8" /><rect x="9.50" y="39.00" width="3.60" height="4.20" fill="#22262b" rx="1.5" /><line x1="10.20" y1="40.60" x2="12.20" y2="40.60" stroke="#3a4048" stroke-width="0.7" stroke-linecap="round" /></g><g transform="rotate(-3 28.900000000000002 28.0)"><rect x="26.80" y="26.80" width="4.20" height="13.20" fill="#b85a10" rx="2" /><rect x="26.80" y="37.40" width="4.20" height="1.80" fill="#8a4508" rx="0.8" /><rect x="27.10" y="39.00" width="3.60" height="4.20" fill="#22262b" rx="1.5" /><line x1="27.80" y1="40.60" x2="29.80" y2="40.60" stroke="#3a4048" stroke-width="0.7" stroke-linecap="round" /></g><rect x="18.00" y="21.80" width="4.00" height="3.40" fill="#5f3922" rx="0" /><circle cx="20.00" cy="17.20" r="6.10" fill="#5f3922" /><path d="M 13.9 18.8 a 6.1 6.1 0 0 1 12.2 0 l 0 -2.8 a 6.1 6.1 0 0 0 -12.2 0 z" fill="#2e2620"  /><ellipse cx="20.00" cy="16.60" rx="6.15" ry="5.20" fill="#171310" /><ellipse cx="20.20" cy="11.60" rx="6.30" ry="3.30" fill="#171310" /><circle cx="16.40" cy="10.40" r="2.60" fill="#171310" /><circle cx="20.20" cy="9.20" r="2.90" fill="#171310" /><circle cx="23.80" cy="10.40" r="2.60" fill="#171310" /><circle cx="18.20" cy="8.40" r="2.20" fill="#171310" /><circle cx="22.20" cy="8.40" r="2.20" fill="#171310" /><circle cx="17.60" cy="9.40" r="0.60" fill="#2e2620" /><circle cx="21.60" cy="7.80" r="0.60" fill="#2e2620" /><circle cx="23.60" cy="11.00" r="0.60" fill="#2e2620" /><circle cx="19.80" cy="13.00" r="0.60" fill="#2e2620" /><circle cx="22.60" cy="15.00" r="0.60" fill="#2e2620" /><circle cx="16.80" cy="14.40" r="0.60" fill="#2e2620" /></svg>