<svg xmlns="http://www.w3.org/2000/svg" width="40" height="70" viewBox="0 0 40 70"><g transform="rotate(16 14 62)"><rect x="10.60" y="59.40" width="6.60" height="5.40" fill="#d96a12" rx="1.6" /><rect x="10.10" y="64.00" width="7.60" height="1.90" fill="#1d2024" rx="0.9" /><line x1="12.00" y1="60.80" x2="15.20" y2="60.40" stroke="#8a3f08" stroke-width="0.8" stroke-linecap="round" /><line x1="12.00" y1="62.20" x2="15.20" y2="61.80" stroke="#8a3f08" stroke-width="0.8" stroke-linecap="round" /></g><g transform="rotate(12 15.8 45)"><rect x="13.00" y="43.50" width="5.60" height="17.00" fill="#3a3f46" rx="2" /><rect x="13.90" y="50.64" width="3.80" height="4.20" fill="#2b2f35" rx="0.8" stroke="#454b53" stroke-width="0.5"/><rect x="13.00" y="58.70" width="5.60" height="1.80" fill="#2b2f35" rx="0.8" /></g><rect x="21.80" y="61.60" width="6.60" height="5.40" fill="#d96a12" rx="1.6" /><rect x="21.30" y="66.20" width="7.60" height="1.90" fill="#1d2024" rx="0.9" /><line x1="23.20" y1="63.00" x2="26.40" y2="62.60" stroke="#8a3f08" stroke-width="0.8" stroke-linecap="round" /><line x1="23.20" y1="64.40" x2="26.40" y2="64.00" stroke="#8a3f08" stroke-width="0.8" stroke-linecap="round" /><g transform="rotate(-6 24.2 45)"><rect x="21.40" y="43.50" width="5.60" height="19.50" fill="#2b2f35" rx="2" /><rect x="22.30" y="51.69" width="3.80" height="4.20" fill="#22262b" rx="0.8" stroke="#454b53" stroke-width="0.5"/><rect x="21.40" y="61.20" width="5.60" height="1.80" fill="#2b2f35" rx="0.8" /></g><rect x="11.80" y="41.60" width="16.40" height="2.90" fill="#2c2620" rx="1" /><rect x="18.60" y="42.10" width="2.80" height="1.90" fill="#b9b3a6" rx="0.5" /><rect x="12.60" y="44.20" width="3.40" height="3.40" fill="#6b4c3a" rx="0.9" stroke="#4a3526" stroke-width="0.5"/><rect x="24.60" y="44.00" width="1.40" height="4.40" fill="#9aa1a8" rx="0.6" /><circle cx="25.30" cy="44.00" r="1.10" fill="#9aa1a8" /><circle cx="25.30" cy="44.00" r="0.50" fill="#2c2620" /><rect x="26.80" y="44.00" width="1.20" height="2.80" fill="#f2c14e" rx="0.5" /><rect x="27.10" y="46.80" width="0.60" height="2.00" fill="#9aa1a8" rx="0.3" /><ellipse cx="20.00" cy="24.90" rx="7.60" ry="2.80" fill="#b85a10" /><ellipse cx="20.00" cy="25.30" rx="5.40" ry="1.80" fill="#a04e0c" /><rect x="11.50" y="25.50" width="17.00" height="17.50" fill="#e87722" rx="3.4" /><path d="M 24.5 26.5 q 4 8.75 0 15.5 l 4 0 q 1.2 -9.625 0 15.3 z" fill="#b85a10"  opacity="0.55"/><path d="M 17.8 26.9 L 20 30.0 L 22.2 26.9 L 21.2 30.3 L 20 41.5 L 18.8 30.3 Z" fill="#23262b"  /><line x1="20.00" y1="30.00" x2="20.00" y2="40.50" stroke="#8a4508" stroke-width="0.9" stroke-linecap="round" /><line x1="13.70" y1="31.00" x2="16.80" y2="31.80" stroke="#8a4508" stroke-width="0.8" stroke-linecap="round" /><line x1="23.20" y1="31.80" x2="26.30" y2="31.00" stroke="#8a4508" stroke-width="0.8" stroke-linecap="round" /><rect x="11.50" y="40.60" width="17.00" height="2.40" fill="#b85a10" rx="1.1" /><line x1="13.40" y1="40.80" x2="13.40" y2="42.60" stroke="#8a4508" stroke-width="0.5" stroke-linecap="round" /><line x1="15.60" y1="40.80" x2="15.60" y2="42.60" stroke="#8a4508" stroke-width="0.5" stroke-linecap="round" /><line x1="17.80" y1="40.80" x2="17.80" y2="42.60" stroke="#8a4508" stroke-width="0.5" stroke-linecap="round" /><line x1="20.00" y1="40.80" x2="20.00" y2="42.60" stroke="#8a4508" stroke-width="0.5" stroke-linecap="round" /><line x1="22.20" y1="40.80" x2="22.20" y2="42.60" stroke="#8a4508" stroke-width="0.5" stroke-linecap="round" /><line x1="24.40" y1="40.80" x2="24.40" y2="42.60" stroke="#8a4508" stroke-width="0.5" stroke-linecap="round" /><line x1="26.60" y1="40.80" x2="26.60" y2="42.60" stroke="#8a4508" stroke-width="0.5" stroke-linecap="round" /><g transform="rotate(-16 11.299999999999999 28.0)"><rect x="9.20" y="26.80" width="4.20" height="12.60" fill="#f5924a" rx="2" /><rect x="9.20" y="36.80" width="4.20" height="1.80" fill="#8a4508" rx="0.8" /><rect x="9.50" y="38.40" width="3.60" height="4.20" fill="#22262b" rx="1.5" /><line x1="10.20" y1="40.00" x2="12.20" y2="40.00" stroke="#3a4048" stroke-width="0.7" stroke-linecap="round" /></g><g transform="rotate(14 28.900000000000002 28.0)"><rect x="26.80" y="26.80" width="4.20" height="12.60" fill="#b85a10" rx="2" /><rect x="26.80" y="36.80" width="4.20" height="1.80" fill="#8a4508" rx="0.8" /><rect x="27.10" y="38.40" width="3.60" height="4.20" fill="#22262b" rx="1.5" /><line x1="27.80" y1="40.00" x2="29.80" y2="40.00" stroke="#3a4048" stroke-width="0.7" stroke-linecap="round" /></g><rect x="18.00" y="21.60" width="4.00" height="3.40" fill="#5f3922" rx="0" /><circle cx="20.00" cy="17.00" r="6.10" fill="#7a4a2e" /><circle cx="18.40" cy="17.20" r="0.75" fill="#14100a" /><circle cx="22.60" cy="17.20" r="0.75" fill="#14100a" /><line x1="17.40" y1="15.40" x2="19.30" y2="15.10" stroke="#14100a" stroke-width="0.7" stroke-linecap="round" /><line x1="21.70" y1="15.10" x2="23.50" y2="15.40" stroke="#14100a" stroke-width="0.7" stroke-linecap="round" /><path d="M 20.2 19.6 q 1.3 0.9 2.4 0.2" fill="none" stroke="#5f3922" stroke-width="0.8" stroke-linecap="round" /><circle cx="14.40" cy="17.80" r="1.40" fill="#5f3922" /><path d="M 13.9 15.8 a 6.1 6.1 0 0 1 12.2 0 l 0 -1.6 a 6.1 6.4 0 0 0 -12.2 0 z" fill="#2e2620"  /><ellipse cx="20.30" cy="11.60" rx="6.30" ry="3.30" fill="#171310" /><circle cx="16.40" cy="10.40" r="2.60" fill="#171310" /><circle cx="20.20" cy="9.20" r="2.90" fill="#171310" /><circle cx="23.80" cy="10.40" r="2.60" fill="#171310" /><circle cx="18.20" cy="8.40" r="2.20" fill="#171310" /><circle cx="22.20" cy="8.40" r="2.20" fill="#171310" /><circle cx="17.20" cy="9.40" r="0.60" fill="#2e2620" /><circle cx="21.20" cy="7.80" r="0.60" fill="#2e2620" /><circle cx="24.00" cy="9.80" r="0.60" fill="#2e2620" /><circle cx="19.40" cy="10.60" r="0.60" fill="#2e2620" /></svg>